<svg width="21" height="28" viewBox="0 0 21 28" fill="none" xmlns="http://www.w3.org/2000/svg">
<path d="M0.166016 27.4165C0.166016 24.6759 1.2547 22.0476 3.19258 20.1097C5.13045 18.1719 7.75878 17.0832 10.4993 17.0832C13.2399 17.0832 15.8682 18.1719 17.8061 20.1097C19.744 22.0476 20.8327 24.6759 20.8327 27.4165H18.2493C18.2493 25.3611 17.4328 23.3898 15.9794 21.9364C14.526 20.483 12.5548 19.6665 10.4993 19.6665C8.44392 19.6665 6.47268 20.483 5.01927 21.9364C3.56586 23.3898 2.74935 25.3611 2.74935 27.4165H0.166016ZM10.4993 15.7915C6.21747 15.7915 2.74935 12.3234 2.74935 8.0415C2.74935 3.75963 6.21747 0.291504 10.4993 0.291504C14.7812 0.291504 18.2493 3.75963 18.2493 8.0415C18.2493 12.3234 14.7812 15.7915 10.4993 15.7915ZM10.4993 13.2082C13.3539 13.2082 15.666 10.8961 15.666 8.0415C15.666 5.18692 13.3539 2.87484 10.4993 2.87484C7.64477 2.87484 5.33268 5.18692 5.33268 8.0415C5.33268 10.8961 7.64477 13.2082 10.4993 13.2082Z" fill="#5B8E19"/>
</svg>
