<svg width="40" height="40" viewBox="0 0 40 40" fill="none" xmlns="http://www.w3.org/2000/svg">
<g clip-path="url(#clip0_1_45)">
<path d="M5.00065 5H35.0007C35.4427 5 35.8666 5.17559 36.1792 5.48816C36.4917 5.80072 36.6673 6.22464 36.6673 6.66667V33.3333C36.6673 33.7754 36.4917 34.1993 36.1792 34.5118C35.8666 34.8244 35.4427 35 35.0007 35H5.00065C4.55862 35 4.1347 34.8244 3.82214 34.5118C3.50958 34.1993 3.33398 33.7754 3.33398 33.3333V6.66667C3.33398 6.22464 3.50958 5.80072 3.82214 5.48816C4.1347 5.17559 4.55862 5 5.00065 5ZM33.334 18.3333H6.66732V31.6667H33.334V18.3333ZM33.334 15V8.33333H6.66732V15H33.334ZM23.334 25H30.0007V28.3333H23.334V25Z" fill="#5B8E19"/>
</g>
<defs>
<clipPath id="clip0_1_45">
<rect width="40" height="40" fill="white"/>
</clipPath>
</defs>
</svg>
