<svg width="32" height="32" viewBox="0 0 32 32" fill="none" xmlns="http://www.w3.org/2000/svg">
<g clip-path="url(#clip0_1_1733)">
<path d="M24.0003 9.33333H28.0003C28.3539 9.33333 28.6931 9.47381 28.9431 9.72386C29.1932 9.97391 29.3337 10.313 29.3337 10.6667V26.6667C29.3337 27.0203 29.1932 27.3594 28.9431 27.6095C28.6931 27.8595 28.3539 28 28.0003 28H4.00033C3.6467 28 3.30756 27.8595 3.05752 27.6095C2.80747 27.3594 2.66699 27.0203 2.66699 26.6667V5.33333C2.66699 4.97971 2.80747 4.64057 3.05752 4.39052C3.30756 4.14048 3.6467 4 4.00033 4H24.0003V9.33333ZM5.33366 12V25.3333H26.667V12H5.33366ZM5.33366 6.66667V9.33333H21.3337V6.66667H5.33366ZM20.0003 17.3333H24.0003V20H20.0003V17.3333Z" fill="#828282"/>
</g>
<defs>
<clipPath id="clip0_1_1733">
<rect width="32" height="32" fill="white"/>
</clipPath>
</defs>
</svg>
