<svg width="47" height="68" viewBox="0 0 47 68" fill="none" xmlns="http://www.w3.org/2000/svg">
<path d="M27.9006 23.6288C27.8821 23.6288 27.8306 23.6293 27.7824 23.63C36.6805 25.1608 44.0168 32.2353 45.4337 41.6398C47.2016 53.3758 39.0923 64.3626 27.356 66.1305C15.6197 67.8987 4.6332 59.7891 2.86501 48.0528C1.64247 39.9378 5.14319 32.1822 11.2993 27.5836C11.6513 26.5803 8.64622 28.8648 9.38237 28.1028C9.12878 28.2451 9.84672 27.8192 9.59775 27.9715C7.08188 29.513 7.5488 28.9089 5.78882 31.2933C4.02859 33.6779 2.76527 36.3363 2.03349 39.1947C1.2758 42.1544 1.12427 45.1998 1.58324 48.2459C2.04195 51.292 3.08399 54.1573 4.68012 56.7627C6.22164 59.2786 8.21213 61.4467 10.5965 63.2067C12.981 64.967 15.6392 66.2303 18.4979 66.9621C21.4576 67.7197 24.503 67.8713 27.5488 67.4126C30.5952 66.9536 33.4605 65.9116 36.0659 64.3154C38.5817 62.7742 40.7499 60.7834 42.5099 58.3991C44.2701 56.0145 45.5335 53.3561 46.2652 50.4976C47.0229 47.5379 47.2342 44.4831 46.7155 41.4467C43.9935 25.5044 28.0057 23.6293 27.9006 23.6288Z" fill="#8C4D02"/>
<path d="M8.81532 29.085L8.27559 28.6543L8.42405 29.1501L7.95508 28.7027C8.00815 28.6471 13.8876 23.4807 13.3932 19.2503L13.7137 19.2021C14.3719 23.5718 9.04994 28.8394 8.81532 29.085Z" fill="#8C4D02"/>
<path d="M9.66973 21.1565L9.40461 21.3788C9.84383 21.9867 10.2428 22.9049 10.3184 23.4636C10.6084 25.6054 8.88077 27.5179 6.85156 29.8889C7.28822 29.9463 7.80514 30.0904 8.23385 30.2156C9.46461 28.4323 10.8397 25.9651 10.7187 23.979C10.6631 23.0672 10.2313 21.9282 9.66973 21.1565Z" fill="#8C4D02"/>
<path d="M11.2987 27.5837C9.72206 28.8829 9.55078 27.914 9.55078 27.914C9.68155 27.7191 14.0694 25.8566 16.5992 20.1125L16.9202 20.1148C16.294 21.5087 15.0715 24.9355 11.2987 27.5837Z" fill="#8C4D02"/>
<path d="M25.1523 18.8547C25.1523 18.8547 30.9107 17.9747 35.7514 9.7587C35.7212 9.83793 34.9881 11.7192 33.3166 13.793C31.7697 15.7125 29.0977 18.1488 25.1523 18.8547Z" fill="white"/>
<path d="M9.29297 8.82056C9.29425 8.67235 9.3363 5.15291 10.486 2.07731C10.486 2.07731 9.88937 5.21778 9.29297 8.82056Z" fill="white"/>
<path d="M17.017 10.5641C17.1449 14.3756 15.5106 17.8225 14.447 19.554C14.2734 19.8363 14.9501 16.3284 13.1224 10.4472C13.1224 10.4472 14.0109 16.3848 13.7632 20.2129L13.3652 20.5845C13.3652 20.5845 8.86426 16.3753 8.34555 10.6079C7.82709 4.84057 10.2004 0.000114441 10.2004 0.000114441C10.2004 0.000114441 16.7837 3.61597 17.017 10.5641Z" fill="#5B8E19"/>
<path d="M29.7076 18.5563C25.8159 20.4157 20.0308 21.0144 17.349 21.2757C17.349 21.2757 18.5362 18.7909 20.41 16.5814C22.1872 14.4858 24.4643 12.6227 24.4643 12.6227C21.1557 14.3009 18.5508 17.3155 16.457 21.1724L15.9727 21.3965C15.9727 21.3965 16.0978 16.0899 20.7672 10.9779C26.0551 5.18874 37.8837 6.95923 37.8837 6.95923C37.8837 6.95923 37.0262 15.0594 29.7076 18.5563Z" fill="#5B8E19"/>
<path d="M7.21863 15.98C8.68989 17.893 9.80116 20.7448 10.2509 22.1963C10.4386 22.802 10.194 22.9438 10.194 22.9438C10.194 22.9438 8.72143 19.5951 6.03659 17.8592C6.03659 17.8592 7.37093 19.4143 8.28195 20.5799C9.19322 21.7456 9.70885 23.0479 9.70885 23.0479C8.60553 22.9676 6.27479 22.6884 4.25431 21.2417C0.433584 18.5066 0 12.8923 0 12.8923C0 12.8923 4.48251 12.4226 7.21863 15.98Z" fill="#5B8E19"/>
<path d="M14.3598 39.9421C14.3598 39.2013 13.778 38.6459 13.0639 38.6459C12.6936 38.6459 12.3762 38.7782 12.1116 39.0164C11.8737 39.2544 11.768 39.5718 11.768 39.9421C11.768 40.2859 11.8737 40.6033 12.1116 40.8413C12.3762 41.1056 12.6936 41.2379 13.0639 41.2379C13.4077 41.2379 13.7249 41.1056 13.9631 40.8413C14.2275 40.6033 14.3598 40.2859 14.3598 39.9421ZM10.8688 49.1196C11.9267 49.1196 12.3498 48.4584 12.3498 47.8502V45.6815H11.9001C10.6042 45.6815 8.99087 46.2897 8.99087 47.8235C8.99087 48.5643 9.59932 49.1196 10.8688 49.1196ZM11.0273 39.9421C11.0273 39.2013 10.4719 38.6459 9.75778 38.6459C9.38753 38.6459 9.0701 38.7782 8.80575 39.0164C8.5678 39.2544 8.43549 39.5718 8.43549 39.9421C8.43549 40.2859 8.5678 40.6033 8.80575 40.8413C9.0701 41.1056 9.38753 41.2379 9.75778 41.2379C10.1016 41.2379 10.4191 41.1056 10.6573 40.8413C10.8952 40.6033 11.0273 40.2859 11.0273 39.9421ZM14.3598 48.0617C14.3598 48.5904 14.1482 51.2883 11.239 51.2883C9.49343 51.2883 6.875 50.8653 6.875 48.2204C6.875 45.9458 8.67344 43.4597 12.5349 43.4597C12.7995 43.4597 13.3285 43.4597 14.3598 43.6977V48.0617Z" fill="#5B8E19"/>
<path d="M18.5912 51.1295C18.5912 49.5162 18.4853 46.1044 18.4325 45.3373C18.7235 45.1788 19.1202 44.9673 19.3317 44.8085C19.7286 44.5968 20.4691 44.1737 20.8922 43.9621V48.9341H21.0773V51.2882H20.8658C20.7866 53.6951 19.993 56.2607 14.3066 56.2869L14.9148 55.9958C17.6128 55.1497 18.5912 53.2718 18.5912 51.1295Z" fill="#5B8E19"/>
<path d="M29.4339 50.8918C30.4919 50.8918 31.3647 49.9923 31.3647 48.9082C31.3647 47.8764 30.4919 46.9772 29.4339 46.9772C28.376 46.9772 27.4768 47.8764 27.4768 48.9082C27.4768 49.9923 28.376 50.8918 29.4339 50.8918ZM20.6797 48.9344H25.2289C25.3609 46.5277 27.1858 44.6765 29.4606 44.6765C31.7352 44.6765 33.6129 46.6336 33.6657 48.9344H33.9567V51.2884H32.8195C32.0524 52.3464 30.836 53.1133 29.4606 53.1133C28.0322 53.1133 26.8155 52.3464 26.0486 51.2884H20.6797V48.9344Z" fill="#5B8E19"/>
<path d="M39.5656 36.4247C38.8515 36.4247 38.2695 36.98 38.2695 37.7205C38.2695 38.4346 38.8515 39.0164 39.5656 39.0164C40.2794 39.0164 40.8615 38.4346 40.8615 37.7205C40.8615 36.98 40.2794 36.4247 39.5656 36.4247ZM37.8464 33.5416C37.1056 33.5416 36.5241 34.1237 36.5241 34.8378C36.5241 35.5518 37.1056 36.1336 37.8464 36.1336C38.5605 36.1336 39.1425 35.5518 39.1425 34.8378C39.1425 34.1237 38.5605 33.5416 37.8464 33.5416ZM36.2592 36.4247C35.519 36.4247 34.9636 36.98 34.9636 37.7205C34.9636 38.4346 35.519 39.0164 36.2592 39.0164C37 39.0164 37.5554 38.4346 37.5554 37.7205C37.5554 36.98 37 36.4247 36.2592 36.4247ZM38.5605 48.9345C38.5341 47.2684 38.3223 44.0417 38.0315 42.1638L40.1474 41.0267C40.3589 42.4548 40.8087 46.1309 40.8087 48.776C40.8087 49.543 40.7558 50.5217 40.6763 51.2886H33.5352V48.9345H38.5605Z" fill="#5B8E19"/>
<path d="M13.5815 57.5753C13.5246 57.6302 13.4961 57.6986 13.4961 57.7807V57.9768H14.6938V61.0709C14.6938 61.1932 14.722 61.2796 14.7781 61.3301C14.8343 61.3806 14.9197 61.406 15.0343 61.406H15.2248V57.9768H16.1494C16.2299 57.9768 16.3007 57.944 16.3622 57.8786C16.4235 57.8135 16.4543 57.7502 16.4543 57.6891V57.4899H13.8348C13.723 57.492 13.6384 57.5204 13.5815 57.5753Z" fill="#8C4D02"/>
<path d="M18.0846 58.4194C17.8633 58.4194 17.6748 58.4901 17.5194 58.6314C17.4325 58.7104 17.293 58.6481 17.293 58.5307V57.6766C17.293 57.5981 17.2964 57.5317 17.2946 57.4773C17.2948 57.4737 17.2956 57.4707 17.2956 57.4671C17.2956 57.4422 17.291 57.4184 17.2846 57.3955C17.2843 57.395 17.2841 57.3943 17.2838 57.3937C17.252 57.2855 17.153 57.2061 17.0346 57.2061C16.9156 57.2061 16.8164 57.2863 16.7848 57.395C16.7764 57.414 16.7715 57.4348 16.7715 57.4568V61.0837C16.7695 61.2986 16.8889 61.406 17.1305 61.406H17.1412C17.2164 61.406 17.2771 61.3452 17.2771 61.2701V59.7153C17.2771 59.4581 17.3528 59.2548 17.5043 59.1053C17.6579 58.9578 17.8397 58.884 18.05 58.884C18.4915 58.8881 18.7123 59.1568 18.7123 59.6899V61.0837C18.7123 61.2986 18.8353 61.406 19.082 61.406C19.1569 61.406 19.2179 61.3452 19.2179 61.2701V59.6765C19.2156 58.8383 18.8379 58.4194 18.0846 58.4194Z" fill="#8C4D02"/>
<path d="M21.4059 60.3978C21.4059 60.6126 21.3571 60.7665 21.2602 60.8593C21.1607 60.9519 21.0087 60.9983 20.8038 60.9983C20.5969 60.9983 20.4341 60.9539 20.3159 60.8655C20.1977 60.777 20.1384 60.6685 20.1384 60.5401C20.1405 60.2029 20.429 60.0344 21.0036 60.0344H21.4059V60.3978ZM20.8038 58.4034C20.4659 58.4034 20.2046 58.4688 20.0197 58.5993C19.8351 58.7301 19.7428 58.8711 19.7428 59.0229V59.2632H19.7741C19.9677 58.9998 20.2782 58.8681 20.7056 58.8681C20.9484 58.866 21.1248 58.9106 21.2348 59.0019C21.3446 59.0932 21.3995 59.2398 21.3995 59.4419V59.5698H21.0046C20.5641 59.5675 20.2259 59.6529 19.99 59.8255C19.7538 59.998 19.6349 60.2311 19.6328 60.5244C19.6328 60.8178 19.7423 61.0475 19.961 61.2137C20.182 61.3798 20.4672 61.4629 20.8164 61.4629C21.173 61.4629 21.4446 61.3701 21.6315 61.1842C21.8182 60.9985 21.9115 60.7483 21.9115 60.4337V59.5119C21.9095 59.1529 21.8092 58.8786 21.6112 58.6886C21.411 58.4986 21.1418 58.4034 20.8038 58.4034Z" fill="#8C4D02"/>
<path d="M25.3773 58.416C25.1875 58.416 25.0106 58.464 24.8463 58.5596C24.6819 58.6555 24.5504 58.7824 24.4511 58.9407C24.2637 58.5909 23.9719 58.416 23.5758 58.416C23.1796 58.416 22.8742 58.5371 22.6591 58.7786C22.4442 59.0227 22.3378 59.3212 22.3399 59.6745V61.037C22.3399 61.2829 22.4547 61.406 22.6845 61.406H22.8458V59.7371C22.8458 59.1663 23.0658 58.8807 23.5063 58.8807C23.7147 58.8807 23.877 58.9565 23.9929 59.1081C24.1088 59.2599 24.1668 59.4696 24.1668 59.7371V61.0363C24.1668 61.2827 24.2783 61.406 24.5019 61.406H24.6724V59.7245C24.6724 59.4253 24.7263 59.2104 24.8337 59.0799C24.9411 58.9491 25.116 58.8827 25.3583 58.8807C25.7796 58.8827 25.9903 59.1683 25.9903 59.7371V61.0363C25.9903 61.1519 26.0209 61.2427 26.0821 61.3081C26.1432 61.3732 26.2232 61.406 26.3224 61.406H26.4962V59.7281C26.4962 58.8535 26.1232 58.416 25.3773 58.416Z" fill="#8C4D02"/>
<path d="M28.691 60.3978C28.691 60.6126 28.6423 60.7665 28.5454 60.8593C28.4459 60.9519 28.2938 60.9983 28.089 60.9983C27.8821 60.9983 27.7192 60.9539 27.601 60.8655C27.4828 60.777 27.4236 60.6685 27.4236 60.5401C27.4257 60.2029 27.7141 60.0344 28.2887 60.0344H28.691V60.3978ZM28.089 58.4034C27.751 58.4034 27.4898 58.4688 27.3049 58.5993C27.1203 58.7301 27.028 58.8711 27.028 59.0229V59.2632H27.0592C27.2531 58.9998 27.5633 58.8681 27.9908 58.8681C28.2336 58.866 28.41 58.9106 28.52 59.0019C28.6297 59.0932 28.6846 59.2398 28.6846 59.4419V59.5698H28.2897C27.8492 59.5675 27.511 59.6529 27.2751 59.8255C27.039 59.998 26.92 60.2311 26.918 60.5244C26.918 60.8178 27.0275 61.0475 27.2462 61.2137C27.4672 61.3798 27.7523 61.4629 28.1015 61.4629C28.4582 61.4629 28.7297 61.3701 28.9167 61.1842C29.1033 60.9985 29.1967 60.7483 29.1967 60.4337V59.5119C29.1946 59.1529 29.0944 58.8786 28.8964 58.6886C28.6962 58.4986 28.4269 58.4034 28.089 58.4034Z" fill="#8C4D02"/>
<path d="M31.0061 58.5768C30.9176 58.5055 30.7787 58.4699 30.5889 58.4699C30.2961 58.4719 30.0605 58.5814 29.8825 58.7983C29.7046 59.015 29.6154 59.3214 29.6154 59.7171V61.0714C29.6133 61.1683 29.6379 61.2483 29.6895 61.3114C29.741 61.3745 29.813 61.406 29.9053 61.406H30.1212V59.7563C30.1212 59.4445 30.1612 59.2296 30.2412 59.1114C30.3192 58.9935 30.4551 58.9345 30.6489 58.9345C30.8428 58.9345 30.9976 58.984 31.1135 59.083H31.1389V58.844C31.1389 58.7373 31.0946 58.6481 31.0061 58.5768Z" fill="#8C4D02"/>
<path d="M33.2887 60.3978C33.2887 60.6126 33.24 60.7665 33.143 60.8593C33.0436 60.9519 32.8915 60.9983 32.6866 60.9983C32.4797 60.9983 32.3169 60.9539 32.1987 60.8655C32.0805 60.777 32.0213 60.6685 32.0213 60.5401C32.0233 60.2029 32.3118 60.0344 32.8864 60.0344H33.2887V60.3978ZM32.6866 58.4034C32.3487 58.4034 32.0874 58.4688 31.9025 58.5993C31.7179 58.7301 31.6256 58.8711 31.6256 59.0229V59.2632H31.6569C31.8507 58.9998 32.161 58.8681 32.5884 58.8681C32.8312 58.866 33.0077 58.9106 33.1177 59.0019C33.2274 59.0932 33.2823 59.2398 33.2823 59.4419V59.5698H32.8874C32.4469 59.5675 32.1087 59.6529 31.8728 59.8255C31.6366 59.998 31.5177 60.2311 31.5156 60.5244C31.5156 60.8178 31.6251 61.0475 31.8438 61.2137C32.0648 61.3798 32.35 61.4629 32.6992 61.4629C33.0559 61.4629 33.3274 61.3701 33.5143 61.1842C33.701 60.9985 33.7943 60.7483 33.7943 60.4337V59.5119C33.7923 59.1529 33.692 58.8786 33.4941 58.6886C33.2938 58.4986 33.0246 58.4034 32.6866 58.4034Z" fill="#8C4D02"/>
</svg>
