<svg width="40" height="40" viewBox="0 0 40 40" fill="none" xmlns="http://www.w3.org/2000/svg">
<path d="M19.1792 0.109406C18.4761 0.281281 18.0386 0.570344 16.7339 1.71878C16.0307 2.34378 15.3511 2.92972 15.2261 3.03128L14.9995 3.21878L12.8667 3.04691C9.65574 2.78909 9.1948 2.82034 8.35886 3.30472C7.99168 3.51566 7.37449 4.10941 7.12449 4.49222C7.0073 4.67191 6.59324 5.82816 6.16355 7.18753C5.42918 9.52347 5.40574 9.57034 5.14011 9.72659C2.8198 11.0703 1.39011 11.9688 1.04636 12.3125C0.194801 13.1485 -0.188011 14.4297 0.0932386 15.5313C0.140114 15.7344 0.561989 16.8203 1.02293 17.9453L1.85886 19.9844L1.04636 21.9688C0.593239 23.0547 0.171364 24.1407 0.108864 24.375C-0.102074 25.1797 0.0229261 26.1094 0.444801 26.8907C0.811989 27.5703 1.39793 28.0157 3.64011 29.3516L5.7573 30.6172L6.24949 32.6328C6.51511 33.75 6.83543 34.8672 6.96043 35.1407C7.24168 35.7578 7.92136 36.4532 8.53074 36.75C9.33543 37.1407 9.6948 37.1641 12.4839 36.9453L14.9839 36.7578L16.3432 37.9532C17.0854 38.6094 17.8745 39.2656 18.0854 39.4063C19.1167 40.1016 20.4448 40.1719 21.5854 39.6016C21.8589 39.461 22.6089 38.8672 23.5307 38.0625L25.0151 36.7578L27.5151 36.9453C30.2964 37.1563 30.6167 37.1407 31.4448 36.75C32.0776 36.461 32.7495 35.7735 33.0386 35.1407C33.1636 34.8672 33.4839 33.7578 33.7495 32.6485L34.2261 30.6407L36.3511 29.3672C38.6011 28.0235 39.187 27.5703 39.5542 26.8907C39.9761 26.1094 40.1011 25.1797 39.8901 24.375C39.8276 24.1407 39.4057 23.0547 38.9526 21.9688L38.1401 19.9844L38.9917 17.9063C39.5307 16.5938 39.8823 15.625 39.937 15.2969C40.1245 14.2422 39.7417 13.086 38.9604 12.3125C38.6792 12.0391 37.8745 11.5078 36.4057 10.6328C35.2261 9.92972 34.2495 9.34378 34.2417 9.34378C34.2339 9.33597 34.0151 8.43753 33.7495 7.34378C33.4136 5.93753 33.1948 5.18753 33.0073 4.79691C32.5307 3.81253 31.5229 3.07034 30.437 2.90628C30.0932 2.85159 29.3432 2.88284 27.6245 3.01566C26.3276 3.11722 25.2026 3.19534 25.1089 3.20316C25.0073 3.20316 24.4214 2.73441 23.5464 1.96097C22.6557 1.16409 21.9604 0.617219 21.6401 0.445344C20.8276 0.0156565 20.0229 -0.0937185 19.1792 0.109406ZM20.5307 2.51566C20.7104 2.61722 21.5542 3.32034 22.4136 4.07816C23.4214 4.96878 24.062 5.48441 24.2339 5.53128C24.4057 5.57816 25.3589 5.53128 27.2261 5.39066C28.8745 5.26566 30.0464 5.20316 30.187 5.24222C30.5229 5.33597 30.7651 5.52347 30.8979 5.78128C30.9604 5.90628 31.2651 7.03128 31.562 8.28128C31.8667 9.53128 32.1714 10.6407 32.2339 10.75C32.3042 10.8594 33.4136 11.5703 34.7573 12.375C36.0698 13.1641 37.2261 13.8985 37.3198 14C37.5229 14.211 37.6557 14.5391 37.6557 14.8125C37.6557 14.9219 37.2182 16.0703 36.6792 17.375C36.1401 18.6797 35.7026 19.8516 35.7026 19.9922C35.7026 20.125 36.1323 21.2578 36.6557 22.5157C37.7026 25.0313 37.7886 25.375 37.4526 25.836C37.3589 25.9688 36.3198 26.6407 34.8901 27.5C33.562 28.2969 32.4057 29.0391 32.3042 29.1563C32.1714 29.3125 31.9995 29.8907 31.6011 31.5391C31.3198 32.7344 31.0464 33.8203 31.0073 33.961C30.8979 34.2969 30.4995 34.6719 30.187 34.7344C30.0386 34.7578 28.6948 34.6875 27.187 34.5703C24.8589 34.3907 24.4136 34.375 24.2026 34.461C24.0698 34.5157 23.2026 35.2188 22.2886 36.0313C20.4682 37.6328 20.2573 37.7578 19.687 37.586C19.4604 37.5235 18.9136 37.086 17.7261 36.0391C16.812 35.2422 15.9448 34.5391 15.7964 34.4766C15.5464 34.375 15.2495 34.3828 12.7964 34.5703C11.2964 34.6875 9.96043 34.7578 9.8198 34.7344C9.53855 34.6797 9.30418 34.5078 9.11668 34.2188C9.04636 34.1094 8.74168 32.9844 8.43699 31.7188C8.1323 30.4453 7.82761 29.3282 7.74949 29.2188C7.57761 28.9766 7.1948 28.7266 4.6948 27.2422C3.53855 26.5469 2.64011 25.961 2.54636 25.836C2.21043 25.3828 2.29636 25.0391 3.34324 22.5157C3.86668 21.2578 4.29636 20.125 4.29636 19.9922C4.29636 19.8516 3.85886 18.6797 3.3198 17.375C2.78074 16.0703 2.34324 14.9141 2.34324 14.8047C2.34324 14.5 2.53074 14.1172 2.78855 13.8985C2.91355 13.7969 3.93699 13.1641 5.0698 12.5C6.34324 11.75 7.1948 11.2032 7.30418 11.0547C7.40574 10.9141 7.79636 9.82034 8.24168 8.39847C8.65574 7.07034 9.04636 5.88284 9.10886 5.76566C9.23386 5.52347 9.48386 5.33597 9.81199 5.24222C9.95261 5.20316 11.1245 5.26566 12.7729 5.39066C14.6479 5.53128 15.5932 5.57816 15.7729 5.53128C15.9136 5.49222 16.3354 5.19534 16.7104 4.85941C17.0776 4.53128 17.8042 3.89066 18.3198 3.42972C18.8354 2.97659 19.3667 2.54691 19.4917 2.47659C19.8198 2.29691 20.1479 2.31253 20.5307 2.51566Z" fill="#5B8E19"/>
<path d="M18.5703 7.19537C15.6484 7.5313 12.9297 8.85162 10.8594 10.9376C8.99219 12.8204 7.79688 15.1329 7.28906 17.836C7.10937 18.836 7.10937 21.1641 7.28906 22.1641C8.3125 27.6251 12.375 31.6954 17.8359 32.711C18.7344 32.8751 21.0938 32.8985 21.9531 32.7501C25.8984 32.0547 29.1172 29.8594 31.125 26.4844C31.8828 25.211 32.5156 23.4219 32.7422 21.9141C32.8906 20.9532 32.875 18.836 32.7109 17.8907C32.0469 14.0079 29.7422 10.7579 26.2344 8.72662C24.0938 7.49224 21.1094 6.89849 18.5703 7.19537ZM21.9922 9.64849C24.0391 10.0782 25.7578 10.961 27.2109 12.3438C28.7813 13.8282 29.7891 15.6016 30.2969 17.7657C30.4688 18.5235 30.5 18.8047 30.5 20.0001C30.5 21.2032 30.4688 21.4766 30.2891 22.2422C29.6563 24.9844 28.0859 27.2579 25.7969 28.7813C24.6172 29.5704 23.4609 30.0391 21.9453 30.3672C21.1484 30.5313 19.0547 30.5547 18.2656 30.4063C16.0156 29.9844 14.1719 29.0157 12.5703 27.4297C11.0313 25.9063 10.0938 24.1485 9.63281 21.9532C9.44531 21.0313 9.44531 18.9688 9.63281 18.0469C10.0938 15.8516 10.9922 14.1641 12.5391 12.6094C14.3203 10.8204 16.3906 9.81255 18.9063 9.50005C19.4766 9.42974 21.3906 9.52349 21.9922 9.64849Z" fill="#5B8E19"/>
<path d="M25.3501 15.4375C25.2251 15.5078 23.7017 16.9766 21.9751 18.6953L18.8267 21.8359L16.8579 19.8672C15.772 18.7891 14.772 17.8516 14.6314 17.7812C13.6783 17.3047 12.6158 18.3672 13.0923 19.3203C13.2642 19.6641 17.9361 24.3516 18.2954 24.5391C18.6626 24.7266 18.9908 24.7266 19.3579 24.5391C19.7876 24.3125 26.7642 17.2969 26.9126 16.9375C27.0689 16.5625 27.0611 16.3594 26.8814 15.9609C26.6236 15.4062 25.897 15.1562 25.3501 15.4375Z" fill="#5B8E19"/>
</svg>
