<svg width="24" height="23" viewBox="0 0 24 23" fill="none" xmlns="http://www.w3.org/2000/svg">
<path d="M12.0018 2.28381C14.7423 -0.17669 18.9773 -0.0950233 21.6175 2.54981C24.2565 5.19581 24.3475 9.40981 21.8928 12.1585L11.9995 22.0658L2.10849 12.1585C-0.346175 9.40981 -0.254008 5.18881 2.38382 2.54981C5.02632 -0.0915233 9.25316 -0.18019 12.0018 2.28381ZM19.9655 4.19831C18.2155 2.44598 15.3922 2.37481 13.5605 4.01981L12.003 5.41748L10.4443 4.02098C8.60682 2.37364 5.78932 2.44598 4.03466 4.20064C2.29632 5.93898 2.20882 8.72148 3.81066 10.5601L12.0007 18.763L20.1907 10.5613C21.7937 8.72148 21.7062 5.94248 19.9655 4.19831Z" fill="black"/>
</svg>
